<svg width="40" height="40" viewBox="0 0 40 40" fill="none" xmlns="http://www.w3.org/2000/svg">
<path d="M7 28.3333H15C16.8692 28.3333 17.8038 28.3333 18.5 28.7352C18.9561 28.9985 19.3348 29.3772 19.5981 29.8333C20 30.5294 20 31.4641 20 33.3333V12.6666C20 9.8382 20 8.42399 19.1213 7.54531C18.2426 6.66663 16.8284 6.66663 14 6.66663H7C6.05719 6.66663 5.58579 6.66663 5.29289 6.95952C5 7.25241 5 7.72382 5 8.66662V26.3333C5 27.2761 5 27.7475 5.29289 28.0404C5.58579 28.3333 6.05719 28.3333 7 28.3333Z" stroke="black" stroke-opacity="0.25" stroke-width="2"/>
<path d="M33 28.3333H25C23.1308 28.3333 22.1962 28.3333 21.5 28.7352C21.0439 28.9985 20.6652 29.3772 20.4019 29.8333C20 30.5294 20 31.4641 20 33.3333V12.6666C20 9.8382 20 8.42399 20.8787 7.54531C21.7574 6.66663 23.1716 6.66663 26 6.66663H33C33.9428 6.66663 34.4142 6.66663 34.7071 6.95952C35 7.25241 35 7.72382 35 8.66662V26.3333C35 27.2761 35 27.7475 34.7071 28.0404C34.4142 28.3333 33.9428 28.3333 33 28.3333Z" stroke="black" stroke-opacity="0.25" stroke-width="2"/>
</svg>
