<svg width="75" height="64" viewBox="0 0 75 64" fill="none" xmlns="http://www.w3.org/2000/svg">
<g filter="url(#filter0_d_724_26)">
<path fill-rule="evenodd" clip-rule="evenodd" d="M27.9387 33.9267C27.9369 33.9267 27.9351 33.9267 27.9333 33.9267C27.9324 33.9267 27.9342 33.9267 27.9333 33.9267C26.7599 33.939 25.7109 34.4729 25.0103 35.3062C24.4382 35.9868 24.0966 36.8669 24.1046 37.8257C24.1194 39.589 25.3122 41.0666 26.9298 41.518C27.2695 41.6128 27.628 41.6624 27.9982 41.6598L34.7701 41.6029C35.3039 41.5984 35.7403 42.0276 35.7448 42.5614C35.7493 43.0953 35.3201 43.5317 34.7863 43.5362L31.8864 43.5605C30.4552 43.5725 29.2122 44.3606 28.5534 45.5219C28.2292 46.0934 28.0464 46.7553 28.0523 47.4595C28.0703 49.595 29.8159 51.3115 31.9513 51.2936L39.6844 51.2286L39.7282 51.228L55.1505 51.0985C61.5568 51.0447 66.7065 45.8078 66.6527 39.4015L66.539 25.8687C66.5232 23.9821 66.0578 22.2044 65.2455 20.6366C65.1563 18.4616 63.9593 16.3866 61.9081 15.2707L42.5609 4.74554C40.6851 3.72503 38.3371 4.41844 37.3166 6.29432C36.5313 7.73766 36.7608 9.4605 37.7629 10.6431C38.0631 10.9975 38.4328 11.3034 38.8653 11.5387L44.2272 14.4556L12.3102 14.7237C10.1748 14.7416 8.45822 16.4872 8.47615 18.6227C8.49409 20.7581 10.2397 22.4747 12.3752 22.4567L31.7078 22.2944L34.6077 22.2703C35.1416 22.2658 35.578 22.6949 35.5825 23.2288C35.5869 23.7626 35.1578 24.199 34.6239 24.2035L27.8575 24.2603C26.4264 24.2724 25.1835 25.0603 24.5246 26.2215C24.2003 26.793 24.0175 27.455 24.0235 28.1593C24.0315 29.1181 24.3878 29.9924 24.9713 30.6632C25.6863 31.4853 26.7425 32.0017 27.9171 31.9934L34.6889 31.9366C35.2227 31.9321 35.6591 32.3612 35.6636 32.8951C35.6681 33.429 35.239 33.8654 34.7051 33.8698L27.9387 33.9267ZM21.8936 33.0107C20.8434 34.3436 20.2227 36.0294 20.2381 37.8581C20.2638 40.9174 22.0625 43.5469 24.6507 44.7793C24.3425 45.6249 24.1778 46.5391 24.1858 47.492C24.2217 51.7629 27.713 55.196 31.9838 55.1601L39.7383 55.095L39.7715 55.0945L55.183 54.9651C63.7247 54.8933 70.591 47.9108 70.5192 39.3691L70.4056 25.8362C70.3869 23.6153 69.8987 21.4994 69.0336 19.5893C68.6283 16.4414 66.7685 13.513 63.7559 11.8741L44.4087 1.34896C40.657 -0.692064 35.961 0.694759 33.92 4.44652C32.8368 6.43763 32.7191 8.69468 33.4079 10.6797L12.2777 10.8571C8.00689 10.893 4.57376 14.3843 4.60962 18.6551C4.64549 22.926 8.13677 26.3591 12.4076 26.3232L20.3844 26.2563C20.2305 26.8756 20.1513 27.5242 20.1569 28.1918C20.1723 30.0206 20.8212 31.6958 21.8936 33.0107Z" fill="white"/>
</g>
<defs>
<filter id="filter0_d_724_26" x="0.609344" y="0.407288" width="73.9104" height="62.7531" filterUnits="userSpaceOnUse" color-interpolation-filters="sRGB">
<feFlood flood-opacity="0" result="BackgroundImageFix"/>
<feColorMatrix in="SourceAlpha" type="matrix" values="0 0 0 0 0 0 0 0 0 0 0 0 0 0 0 0 0 0 127 0" result="hardAlpha"/>
<feOffset dy="4"/>
<feGaussianBlur stdDeviation="2"/>
<feComposite in2="hardAlpha" operator="out"/>
<feColorMatrix type="matrix" values="0 0 0 0 0 0 0 0 0 0 0 0 0 0 0 0 0 0 0.25 0"/>
<feBlend mode="normal" in2="BackgroundImageFix" result="effect1_dropShadow_724_26"/>
<feBlend mode="normal" in="SourceGraphic" in2="effect1_dropShadow_724_26" result="shape"/>
</filter>
</defs>
</svg>
