<svg width="74" height="64" viewBox="0 0 74 64" fill="none" xmlns="http://www.w3.org/2000/svg">
<g filter="url(#filter0_d_724_3)">
<path fill-rule="evenodd" clip-rule="evenodd" d="M46.6 34.3445C46.6018 34.3445 46.6036 34.3445 46.6054 34.3445C46.6063 34.3445 46.6045 34.3445 46.6054 34.3445C47.7788 34.3469 48.8323 34.872 49.5398 35.6994C50.1177 36.3751 50.4666 37.2524 50.4666 38.2111C50.4666 39.9745 49.2863 41.4621 47.6726 41.9271C47.3336 42.0247 46.9756 42.0773 46.6054 42.0778H39.8333C39.2994 42.0778 38.8666 42.5106 38.8666 43.0445C38.8666 43.5783 39.2994 44.0111 39.8333 44.0111L42.7333 44.0111C44.1645 44.0111 45.4141 44.7887 46.0827 45.9445C46.4117 46.5132 46.6 47.1735 46.6 47.8778C46.6 50.0133 44.8688 51.7445 42.7333 51.7445H35L34.9561 51.7442H19.5333C13.1268 51.7442 7.9333 46.5507 7.9333 40.1442V26.6109C7.9333 24.7242 8.38372 22.9427 9.18288 21.3681C9.25376 19.1924 10.4333 17.1075 12.4751 15.9744L31.7332 5.28715C33.6004 4.25092 35.9542 4.9246 36.9904 6.79184C37.7877 8.22854 37.5727 9.95325 36.5806 11.1442C36.2833 11.5011 35.9162 11.8101 35.4857 12.049L30.1485 15.0109L62.0666 15.0109C64.2021 15.0109 65.9333 16.7421 65.9333 18.8776C65.9333 21.0131 64.2021 22.7442 62.0666 22.7442L42.7333 22.7442L39.8333 22.7445C39.2994 22.7445 38.8666 23.1773 38.8666 23.7111C38.8666 24.245 39.2994 24.6778 39.8333 24.6778L46.6 24.6778C48.0311 24.6778 49.2806 25.4553 49.9492 26.6109C50.2783 27.1797 50.4666 27.8401 50.4666 28.5445C50.4666 29.5033 50.1177 30.3805 49.5398 31.0562C48.8317 31.8842 47.7799 32.4095 46.6054 32.4111H39.8333C39.2994 32.4111 38.8666 32.8439 38.8666 33.3778C38.8666 33.9117 39.2994 34.3445 39.8333 34.3445L46.6 34.3445ZM52.6372 33.3778C53.6985 34.7018 54.3333 36.3823 54.3333 38.2111C54.3333 41.2705 52.5568 43.915 49.979 45.1691C50.2943 46.0121 50.4666 46.9248 50.4666 47.8778C50.4666 52.1488 47.0043 55.6111 42.7333 55.6111H34.9785L34.9453 55.6109H19.5333C10.9913 55.6109 4.06664 48.6862 4.06664 40.1442V26.6109C4.06664 24.3899 4.53707 22.27 5.38613 20.3527C5.76495 17.2015 7.60012 14.2576 10.5989 12.5935L29.8569 1.90621C33.5914 -0.166244 38.2989 1.1811 40.3713 4.91558C41.4712 6.89753 41.6079 9.15352 40.9357 11.1442L62.0666 11.1442C66.3376 11.1442 69.8 14.6066 69.8 18.8776C69.8 23.1486 66.3376 26.6109 62.0666 26.6109H54.0896C54.2487 27.2289 54.3333 27.8768 54.3333 28.5445C54.3333 30.3733 53.6985 32.0539 52.6372 33.3778Z" fill="white"/>
</g>
<defs>
<filter id="filter0_d_724_3" x="0.0666351" y="0.93335" width="73.7333" height="62.6778" filterUnits="userSpaceOnUse" color-interpolation-filters="sRGB">
<feFlood flood-opacity="0" result="BackgroundImageFix"/>
<feColorMatrix in="SourceAlpha" type="matrix" values="0 0 0 0 0 0 0 0 0 0 0 0 0 0 0 0 0 0 127 0" result="hardAlpha"/>
<feOffset dy="4"/>
<feGaussianBlur stdDeviation="2"/>
<feComposite in2="hardAlpha" operator="out"/>
<feColorMatrix type="matrix" values="0 0 0 0 0 0 0 0 0 0 0 0 0 0 0 0 0 0 0.25 0"/>
<feBlend mode="normal" in2="BackgroundImageFix" result="effect1_dropShadow_724_3"/>
<feBlend mode="normal" in="SourceGraphic" in2="effect1_dropShadow_724_3" result="shape"/>
</filter>
</defs>
</svg>
