<svg width="47" height="46" viewBox="0 0 47 46" fill="none" xmlns="http://www.w3.org/2000/svg">
<path d="M45.5359 42.4763C46.1473 42.3606 46.5072 41.7193 46.2367 41.1589C44.689 37.9515 41.8294 35.1291 38.0025 33.056C33.7456 30.75 28.5297 29.5 23.164 29.5C17.7982 29.5 12.5824 30.75 8.32541 33.056C4.49857 35.1291 1.6389 37.9515 0.0911796 41.1589C-0.179247 41.7193 0.180589 42.3606 0.791998 42.4763L15.7291 45.3019C20.6421 46.2313 25.6858 46.2313 30.5988 45.3019L45.5359 42.4763Z" fill="white"/>
<path d="M36.7056 12.2917C36.7056 19.0802 30.6428 24.5833 23.164 24.5833C15.6851 24.5833 9.62231 19.0802 9.62231 12.2917C9.62231 5.50317 15.6851 0 23.164 0C30.6428 0 36.7056 5.50317 36.7056 12.2917Z" fill="white"/>
</svg>
