<svg width="43" height="46" viewBox="0 0 43 46" fill="none" xmlns="http://www.w3.org/2000/svg">
<path fill-rule="evenodd" clip-rule="evenodd" d="M8.28062 33.3812C12.1291 31.1664 16.7746 30 21.4999 30C26.2252 30 30.8707 31.1664 34.7192 33.3812C38.5663 35.5952 41.4939 38.7935 42.8507 42.5913C43.3152 43.8915 42.6378 45.3222 41.3375 45.7867C40.0373 46.2512 38.6067 45.5737 38.1422 44.2735C37.258 41.7987 35.2475 39.4541 32.2252 37.7148C29.2044 35.9764 25.4332 35 21.4999 35C17.5666 35 13.7954 35.9764 10.7746 37.7148C7.75233 39.4541 5.7418 41.7987 4.85763 44.2735C4.3931 45.5737 2.96249 46.2512 1.66227 45.7867C0.362045 45.3221 -0.315422 43.8915 0.149104 42.5913C1.50594 38.7935 4.43354 35.5952 8.28062 33.3812Z" fill="white"/>
<path fill-rule="evenodd" clip-rule="evenodd" d="M21.5001 5.5C17.45 5.5 14.1667 8.78325 14.1667 12.8333C14.1667 16.8834 17.45 20.1667 21.5001 20.1667C25.5502 20.1667 28.8334 16.8834 28.8334 12.8333C28.8334 8.78325 25.5502 5.5 21.5001 5.5ZM9.16675 12.8333C9.16675 6.02182 14.6886 0.5 21.5001 0.5C28.3116 0.5 33.8334 6.02182 33.8334 12.8333C33.8334 19.6448 28.3116 25.1667 21.5001 25.1667C14.6886 25.1667 9.16675 19.6448 9.16675 12.8333Z" fill="white"/>
</svg>
